<?xml version="1.0" standalone="no"?>
<!DOCTYPE svg PUBLIC "-//W3C//DTD SVG 20010904//EN"
 "http://www.w3.org/TR/2001/REC-SVG-20010904/DTD/svg10.dtd">
<svg version="1.0" xmlns="http://www.w3.org/2000/svg"
 width="700.000000pt" height="700.000000pt" viewBox="0 0 700.000000 700.000000"
 preserveAspectRatio="xMidYMid meet">
<metadata>
Created by potrace 1.14, written by Peter Selinger 2001-2017
</metadata>
<g transform="translate(0.000000,700.000000) scale(0.100000,-0.100000)"
fill="#000000" stroke="none">
<path d="M1045 6646 c-5 -3 -26 -7 -46 -10 -46 -8 -122 -58 -137 -91 -11 -24
-10 -25 13 -20 14 3 36 7 49 10 36 7 196 -77 256 -133 44 -42 54 -62 103 -192
50 -133 64 -179 74 -235 2 -11 3 -119 3 -240 0 -121 5 -247 11 -280 20 -111
109 -260 269 -450 95 -112 320 -318 458 -419 29 -21 50 -41 48 -44 -3 -3 -21
-5 -39 -4 -28 1 -36 -5 -60 -42 -15 -24 -33 -49 -41 -55 -12 -10 -221 -21
-443 -25 -53 -1 -83 -5 -83 -12 0 -6 16 -11 35 -12 20 -1 46 -8 58 -17 21 -15
21 -15 -11 -16 -17 -1 -36 -3 -42 -4 -5 -1 -17 -3 -26 -4 -13 -1 -10 -6 10
-22 25 -20 35 -20 261 -16 210 4 236 3 245 -12 8 -14 9 -14 10 2 0 11 8 17 25
17 30 0 31 -6 5 -95 -24 -81 -27 -153 -9 -182 16 -26 62 -53 104 -63 l32 -7
-38 39 c-42 44 -62 105 -38 118 49 28 62 50 61 103 0 28 1 60 4 70 6 20 24 23
24 3 0 -17 39 -56 82 -81 l33 -19 -19 28 c-28 44 -37 83 -20 90 10 4 21 -10
36 -41 l22 -47 8 35 c14 55 18 63 28 53 16 -17 19 -147 3 -178 -16 -32 -7 -46
32 -46 15 0 16 -3 7 -12 -7 -7 -12 -28 -12 -48 0 -38 13 -55 77 -99 l32 -22
-25 55 c-20 44 -23 61 -16 88 6 25 13 32 29 30 22 -3 35 24 28 58 -2 10 -7 53
-10 95 l-7 76 54 -31 c29 -17 123 -66 208 -109 144 -74 162 -80 234 -86 l78
-6 172 -116 c94 -64 227 -155 296 -201 220 -150 795 -546 800 -551 3 -4 42
-31 87 -61 45 -30 85 -62 89 -70 3 -8 32 -89 64 -180 32 -91 81 -230 110 -310
152 -425 268 -768 340 -1000 23 -74 50 -162 61 -195 20 -66 98 -340 104 -366
17 -79 71 -251 91 -291 35 -70 99 -136 143 -148 50 -14 55 -13 83 13 24 22 25
27 17 83 -4 32 -11 82 -14 109 -3 28 -8 57 -10 65 -2 8 -7 35 -10 60 -10 75
-75 426 -106 575 -69 329 -208 865 -301 1158 -17 54 -28 100 -25 103 5 6 110
-56 115 -68 2 -4 8 -8 13 -8 5 0 48 -25 95 -56 48 -30 89 -53 92 -50 3 3 0 17
-6 30 -13 28 -6 39 17 27 9 -5 28 -11 43 -15 28 -6 27 -5 -33 111 -34 65 -73
138 -86 163 -24 45 -21 43 31 -25 11 -14 8 1 -8 50 -13 39 -51 152 -84 253
l-60 182 51 -27 c29 -16 54 -31 55 -35 2 -5 7 -8 12 -8 12 0 154 -83 158 -92
2 -4 10 -8 18 -8 9 0 13 -4 10 -9 -3 -5 2 -8 12 -7 9 0 16 -4 15 -11 -2 -7 3
-10 11 -7 7 3 21 -2 29 -11 9 -9 20 -16 24 -17 23 -3 52 -22 46 -31 -3 -6 -1
-7 5 -3 12 7 75 -27 66 -36 -3 -3 3 -5 13 -4 10 0 17 -4 16 -11 -2 -7 3 -10
11 -7 7 3 20 -2 28 -10 8 -8 44 -25 79 -37 201 -70 165 114 -56 289 -284 225
-356 301 -489 517 -152 247 -258 408 -355 540 -60 83 -232 305 -256 331 -5 7
-26 31 -45 55 -43 53 -171 202 -179 209 -3 3 -33 37 -66 75 -110 129 -129 149
-255 276 -314 316 -588 466 -1024 560 -191 41 -280 75 -351 132 -27 22 -102
95 -165 161 -256 267 -273 283 -382 353 -79 51 -160 87 -263 115 -78 22 -356
34 -417 18 -66 -18 -104 -19 -158 -5 -30 7 -71 16 -90 20 -44 8 -242 16 -255
11z"/>
</g>
</svg>
